<svg xmlns="http://www.w3.org/2000/svg" viewBox="0 0 96 64" role="img" aria-labelledby="title">
  <title id="title">Google Cloud</title>
  <path fill="#ea4335" d="M59 21h5l14 14v5H59V21z"/>
  <path fill="#fbbc04" d="M37 21h22v19H37z"/>
  <path fill="#34a853" d="M18 35h19v18H18z"/>
  <path fill="#4285f4" d="M37 40h41v13H37z"/>
  <path fill="#4285f4" d="M18 35c0-9 7-16 16-16h3v13h-3c-2 0-3 1-3 3H18z"/>
  <path fill="#34a853" d="M37 19c6-8 18-10 27-4l-7 11c-4-3-10-2-13 2l-7-9z"/>
  <path fill="#ea4335" d="M64 15c8 3 14 11 14 20H65c0-4-2-7-5-9l4-11z"/>
  <path fill="#4285f4" d="M18 53c-8 0-14-6-14-14 0-7 6-13 14-13h13v13H18c-1 0-2 1-2 2s1 2 2 2v10z"/>
</svg>
